<?xml version="1.0" encoding="UTF-8"?>
<svg width="800" height="800" viewBox="0 0 800 800" xmlns="http://www.w3.org/2000/svg">
  <!-- Background -->
  <rect width="800" height="800" fill="#f8f9fa"/>
  
  <!-- Music Lines -->
  <g stroke="#dee2e6" stroke-width="1">
    <line x1="100" y1="100" x2="700" y2="100"/>
    <line x1="100" y1="150" x2="700" y2="150"/>
    <line x1="100" y1="200" x2="700" y2="200"/>
    <line x1="100" y1="250" x2="700" y2="250"/>
    <line x1="100" y1="300" x2="700" y2="300"/>
    <line x1="100" y1="350" x2="700" y2="350"/>
    <line x1="100" y1="400" x2="700" y2="400"/>
    <line x1="100" y1="450" x2="700" y2="450"/>
    <line x1="100" y1="500" x2="700" y2="500"/>
    <line x1="100" y1="550" x2="700" y2="550"/>
    <line x1="100" y1="600" x2="700" y2="600"/>
    <line x1="100" y1="650" x2="700" y2="650"/>
    <line x1="100" y1="700" x2="700" y2="700"/>
  </g>
  
  <!-- Musical Notes -->
  <g fill="#6c757d" opacity="0.1">
    <path d="M150,100 Q160,80 170,100 T190,100"/>
    <path d="M250,150 Q260,130 270,150 T290,150"/>
    <path d="M350,200 Q360,180 370,200 T390,200"/>
    <path d="M450,250 Q460,230 470,250 T490,250"/>
    <path d="M550,300 Q560,280 570,300 T590,300"/>
    <path d="M650,350 Q660,330 670,350 T690,350"/>
  </g>
</svg> 